<svg xmlns="http://www.w3.org/2000/svg" xml:space="preserve" width="256px" height="256px" viewBox="0 0 256 256"><path d="M83 46.5v36.7H10v5.2h73V167H10v5.6h73V246h5.6v-73.4H167.3V246h5.6v-73.4H246V167h-73V88.4h73v-5.2h-73V9.8h-5.6v73.4H88.7V9.8H83v36.7zm84.3 81.3v39.3H88.7V88.4h78.6v39.4z"/><path d="m103.9 103.3-2 2 11.4 11.4 11.4 11.4-11.4 11.4-11.4 11.4 1.9 1.8 1.9 1.8 11.4-11.3 11.4-11.4 11.4 11.4 11.4 11.4 2-2 2-2-11.4-11.4-11.4-11.4 11.4-11.4 11.3-11.4-1.6-1.7c-.9-.9-1.8-1.7-2.1-1.7-.2 0-5.5 5-11.6 11.1L128.7 124l-11.4-11.4-11.3-11.4-2.1 2.1zM206.7 16.2c-9.3 2.3-16.5 9-19.5 18.2a30 30 0 0 0-.2 14.9 28 28 0 0 0 19.5 19 27 27 0 0 0 32.7-20.9c.4-1.8.7-4.2.7-5.2 0-6.6-3.3-14-8.2-19a26.5 26.5 0 0 0-25-7zm12.8 5.9c7.1 2.4 12 7.7 13.9 14.9a21.4 21.4 0 0 1-13.9 25.4 24.8 24.8 0 0 1-13.5-.1 22 22 0 0 1-13.1-12.6A21.4 21.4 0 0 1 206.4 22c3.4-1.2 9.5-1.2 13.1.1zM33.3 102a27.4 27.4 0 0 0-18.5 16.9 31.3 31.3 0 0 0-.8 15.5 27.8 27.8 0 0 0 11.8 16.2c10 6.5 23.5 5.3 32.3-3a25 25 0 0 0 8.6-17.8 27 27 0 0 0-20-27.8c-3.4-1-10-.9-13.4 0zm11 5.1a21.5 21.5 0 0 1 15.2 12.1 23 23 0 0 1 .9 15.1 21.4 21.4 0 0 1-31.8 11.4 21.3 21.3 0 0 1 2.6-37c4.7-2.2 8.1-2.6 13.1-1.6zM188 188.3l-1.8 1.8 11.4 11.4 11.4 11.4-11.4 11.4-11.4 11.4 1.9 1.8 1.9 1.8 11.4-11.3 11.4-11.4 11.4 11.4 11.4 11.3 1.9-1.8 1.9-1.8-11.1-11.2a220.8 220.8 0 0 1-11.1-11.6c0-.2 5-5.5 11.1-11.6l11.1-11.2-1.9-1.8-1.9-1.8-11.4 11.3-11.4 11.2-11.3-11.3a386.4 386.4 0 0 0-11.5-11.2l-2 1.8z"/></svg>
